<?xml version="1.0" standalone="no"?>
<!DOCTYPE svg PUBLIC "-//W3C//DTD SVG 20010904//EN"
 "http://www.w3.org/TR/2001/REC-SVG-20010904/DTD/svg10.dtd">
<svg version="1.0" xmlns="http://www.w3.org/2000/svg"
 width="70.000000pt" height="70.000000pt" viewBox="0 0 70.000000 70.000000"
 preserveAspectRatio="xMidYMid meet">
<metadata>
Created by potrace 1.14, written by Peter Selinger 2001-2017
</metadata>
<g transform="translate(0.000000,70.000000) scale(0.100000,-0.100000)"
fill="#000000" stroke="none">
<path d="M215 686 c-69 -17 -119 -42 -155 -79 -30 -31 -35 -42 -44 -100 -16
-95 92 -166 339 -223 86 -19 162 -59 180 -95 52 -99 -99 -177 -284 -148 -53 8
-155 48 -146 57 3 3 19 7 36 8 65 5 109 56 87 102 -42 87 -228 65 -228 -27 0
-105 166 -183 370 -176 185 6 310 75 327 179 16 101 -89 172 -337 226 -176 39
-246 134 -158 212 65 57 236 54 325 -5 35 -24 56 -48 78 -92 16 -33 36 -60 43
-59 6 1 16 2 20 3 5 0 8 52 8 114 -1 108 -2 112 -23 115 -15 2 -23 -2 -23 -11
0 -29 -24 -30 -141 -3 -71 17 -207 18 -274 2z"/>
</g>
</svg>
